#!OML:ASF F:\VICON\USERDATA\INSTALL\rory3\rory3.ASF
:FULLY-SPECIFIED
:DEGREES
451
root -1.27073 27.186 -5.45046 -174.293 12.9284 179.289
lowerback 13.8195 2.40558 -1.70791
upperback 1.21439 2.99275 -2.1166
thorax -6.43188 1.56707 -1.85512
lowerneck -12.8751 -0.536311 -6.86618
upperneck 7.40324 -0.176127 6.45958
head 4.32101 0.111004 3.10518
rclavicle -1.08338e-014 -1.78906e-014
rhumerus -27.0898 11.7575 -84.6442
rradius 56.0499
rwrist 10.1642
rhand -24.1504 4.78979
rfingers 7.12502
rthumb 2.33213 -25.1772
lclavicle -1.08338e-014 -1.78906e-014
lhumerus -32.8901 19.7518 70.476
lradius 26.5009
lwrist -2.40103
lhand -22.4639 23.9701
lfingers 7.12502
lthumb 3.96082 53.913
rfemur -6.01382 16.4666 22.6712
rtibia 28.2742
rfoot 8.49757 -5.0456
rtoes -8.67791
lfemur -48.4827 16.7959 -31.5784
ltibia 71.8736
lfoot -30.7559 3.34307
ltoes 13.1939
452
root -1.27216 27.2444 -5.50392 -174.201 12.9852 179.147
lowerback 13.7067 2.42073 -1.91267
upperback 1.15729 2.97827 -2.17226
thorax -6.43756 1.56414 -1.79238
lowerneck -12.943 -0.346293 -7.04867
upperneck 7.4349 0.10952 6.49897
head 4.32183 0.248927 3.16874
rclavicle -3.83654e-014 3.1408e-014
rhumerus -27.1331 11.9748 -84.7677
rradius 56.0065
rwrist 10.3761
rhand -24.5241 4.93888
rfingers 7.12502
rthumb 1.97117 -25.0318
lclavicle -3.83654e-014 3.1408e-014
lhumerus -32.6198 19.3967 70.7029
lradius 26.8436
lwrist -1.99049
lhand -22.3959 24.1285
lfingers 7.12502
lthumb 4.02651 54.0702
rfemur -6.25055 16.5631 22.2891
rtibia 28.2949
rfoot 9.65947 -5.17279
rtoes -8.51233
lfemur -47.9463 16.6487 -31.7321
ltibia 71.1903
lfoot -30.7441 3.78246
ltoes 12.8011
453
root -1.27347 27.2912 -5.5555 -173.94 13.018 179.251
lowerback 13.423 2.40905 -1.85562
upperback 1.08084 2.96905 -2.16983
thorax -6.35866 1.55452 -1.8074
lowerneck -12.6797 -0.60752 -7.09908
upperneck 7.01975 -0.257892 6.77997
head 4.17835 0.0828686 3.23341
rclavicle -3.20043e-014 1.27222e-014
rhumerus -27.1849 12.1887 -84.8767
rradius 55.8993
rwrist 10.7252
rhand -24.9897 5.48546
rfingers 7.12502
rthumb 1.52151 -24.4889
lclavicle -3.20043e-014 1.27222e-014
lhumerus -32.397 19.1294 70.8752
lradius 27.2722
lwrist -1.85178
lhand -21.9308 24.8673
lfingers 7.12502
lthumb 4.47558 54.8
rfemur -6.6912 16.5529 22.1344
rtibia 28.4418
rfoot 10.9525 -5.21777
rtoes -7.72569
lfemur -47.6187 16.5282 -31.6446
ltibia 70.5613
lfoot -30.7541 3.94366
ltoes 12.7279
454
root -1.27421 27.3378 -5.60243 -173.708 13.0994 179.448
lowerback 13.2602 2.41947 -1.7088
upperback 1.01704 3.00085 -2.14998
thorax -6.32915 1.56291 -1.86811
lowerneck -12.5986 -0.44568 -7.1959
upperneck 6.7896 -0.0261626 6.86064
head 4.07819 0.198958 3.28821
rclavicle 5.86415e-015 2.14687e-014
rhumerus -27.1196 12.3523 -84.9362
rradius 55.8155
rwrist 10.801
rhand -25.1259 5.77532
rfingers 7.12502
rthumb 1.38994 -24.1999
lclavicle 5.86415e-015 2.14687e-014
lhumerus -32.0971 18.9281 71.0433
lradius 27.7327
lwrist -2.02387
lhand -21.2578 26.2095
lfingers 7.12502
lthumb 5.12547 56.1275
rfemur -7.17724 16.5892 22.0704
rtibia 28.7071
rfoot 12.4044 -5.31405
rtoes -5.72817
lfemur -47.2796 16.4435 -31.4397
ltibia 69.9319
lfoot -30.7096 4.08058
ltoes 12.6369
455
root -1.27534 27.3931 -5.64656 -173.626 13.2239 179.431
lowerback 13.2347 2.43596 -1.8452
upperback 0.998793 3.00233 -2.1393
thorax -6.34183 1.56693 -1.77988
lowerneck -12.7851 -0.387231 -7.19101
upperneck 6.7513 0.0713987 6.8038
head 4.08969 0.247262 3.27727
rclavicle -1.37161e-014 1.66979e-014
rhumerus -26.9712 12.577 -84.9455
rradius 55.8583
rwrist 10.6358
rhand -25.1731 6.00291
rfingers 7.12502
rthumb 1.34441 -23.9726
lclavicle -1.37161e-014 1.66979e-014
lhumerus -31.7909 18.7241 71.2912
lradius 28.1447
lwrist -1.80867
lhand -21.2898 26.537
lfingers 7.12502
lthumb 5.09457 56.4557
rfemur -7.61384 16.5888 21.8043
rtibia 29.0412
rfoot 13.7238 -5.20524
rtoes -4.85758
lfemur -46.7785 16.3572 -31.4302
ltibia 69.2468
lfoot -30.6812 4.32305
ltoes 12.4119
456
root -1.27586 27.4507 -5.69148 -173.602 13.29 179.388
lowerback 13.2723 2.44253 -1.99452
upperback 0.962258 2.98579 -2.1322
thorax -6.40984 1.56225 -1.68901
lowerneck -12.9642 -0.476679 -7.27689
upperneck 6.88076 -0.0462096 7.02251
head 4.16737 0.203486 3.35426
rclavicle -5.79457e-014 1.59028e-014
rhumerus -26.9005 12.7139 -84.985
rradius 55.8633
rwrist 10.5684
rhand -25.241 6.11763
rfingers 7.12502
rthumb 1.27885 -23.8583
lclavicle -5.79457e-014 1.59028e-014
lhumerus -31.5811 18.5032 71.521
lradius 28.4337
lwrist -1.46715
lhand -21.842 25.6978
lfingers 7.12502
lthumb 4.56133 55.6287
rfemur -7.97306 16.4431 21.5377
rtibia 29.3775
rfoot 14.7203 -4.84292
rtoes -4.39053
lfemur -46.1976 16.2617 -31.4122
ltibia 68.5391
lfoot -30.7181 4.44311
ltoes 12.0771
